<svg xmlns="http://www.w3.org/2000/svg" width="300" height="300" viewBox="0 0 300 300" fill="none"><circle cx="150" cy="150" r="150" fill="#34D186"></circle><path fill-rule="evenodd" clip-rule="evenodd" d="M166.254 76.6902V137.761H151.888V79.743L166.254 76.6902ZM125.351 123.391C129.322 123.391 132.535 120.177 132.535 116.206C132.535 112.234 129.322 109.022 125.351 109.022C121.381 109.022 118.169 112.234 118.169 116.206C118.169 120.177 121.381 123.391 125.351 123.391ZM125.351 94.033C137.583 94.033 147.518 103.952 147.518 116.206C147.518 128.46 137.582 138.38 125.351 138.38C113.101 138.38 103.184 128.46 103.184 116.206C103.184 103.952 113.121 94.033 125.351 94.033ZM125.351 143.548C129.319 143.548 132.535 146.765 132.535 150.733C132.535 154.702 129.319 157.918 125.351 157.918C121.385 157.918 118.169 154.702 118.169 150.733C118.169 146.765 121.385 143.548 125.351 143.548ZM93.3881 105.469C96.8598 108.902 99.0145 113.652 98.9939 118.9C98.9939 129.318 90.5548 137.761 80.1396 137.761H55V76.6901H77.3466C87.7617 76.6901 96.2008 85.1324 96.2008 95.5496C96.2008 99.1822 95.1838 102.595 93.3881 105.469ZM80.1593 123.391C82.6336 123.391 84.649 121.375 84.649 118.9C84.649 116.426 82.6336 114.41 80.1593 114.41H69.3861V123.391H80.1593ZM69.3861 91.0596V100.041H77.3671C79.8405 100.041 81.8549 98.0246 81.8549 95.5496C81.8549 93.0755 79.8405 91.0596 77.3671 91.0596H69.3861ZM193.389 109.221H186.225V120.497C186.225 123.91 187.324 126.424 190.196 126.424C192.052 126.424 193.408 126.006 193.408 126.006V136.584C193.408 136.584 190.436 138.38 186.405 138.38H186.225C186.047 138.38 185.887 138.359 185.707 138.359H185.567C185.488 138.359 185.387 138.34 185.307 138.34C177.286 137.92 171.84 132.871 171.84 124.109V86.9279L186.206 83.875V94.8513H193.389V109.221Z" fill="white"></path><path fill-rule="evenodd" clip-rule="evenodd" d="M118.986 210.618C122.964 210.618 126.183 207.404 126.183 203.433C126.183 199.461 122.964 196.248 118.986 196.248C115.007 196.248 111.788 199.461 111.788 203.433C111.788 207.404 115.007 210.618 118.986 210.618ZM118.986 181.259C131.24 181.259 141.196 191.178 141.196 203.433C141.196 215.687 131.24 225.607 118.986 225.607C106.712 225.607 96.7758 215.687 96.7758 203.433C96.7758 191.178 106.732 181.259 118.986 181.259ZM165.988 210.618C169.966 210.618 173.185 207.404 173.185 203.433C173.185 199.461 169.966 196.248 165.988 196.248C162.009 196.248 158.79 199.461 158.79 203.433C158.79 207.404 162.009 210.618 165.988 210.618ZM165.988 181.259C178.242 181.259 188.198 191.178 188.198 203.433C188.198 215.687 178.242 225.607 165.988 225.607C153.714 225.607 143.778 215.687 143.778 203.433C143.778 191.178 153.734 181.259 165.988 181.259ZM73.2011 201.647V224.987H58.8076V163.916H97.2292V178.305H73.2011V187.256H92.8722V201.647H73.2011ZM220.607 221.299C218.164 223.566 215.032 224.987 211.157 224.987C199.905 224.987 190.785 215.199 190.785 203.123C190.785 191.048 199.905 181.259 211.157 181.259C215.032 181.259 218.164 182.655 220.607 184.897V163.916H235V224.987H220.607V221.299ZM212.797 210.375C216.809 210.375 220.061 207.128 220.061 203.123C220.061 199.118 216.809 195.873 212.797 195.873C208.786 195.873 205.534 199.118 205.534 203.123C205.534 207.128 208.786 210.375 212.797 210.375Z" fill="white"></path></svg>